{
  "accessors": [
    {
      "bufferView": 2,
      "componentType": 5126,
      "count": 65532,
      "max": [
        105.7826156616211,
        117.50310516357422,
        108.24325561523438
      ],
      "min": [
        -125.82548522949219,
        -126.53231811523438,
        -108.24325561523438
      ],
      "type": "VEC3"
    },
    {
      "bufferView": 2,
      "byteOffset": 786384,
      "componentType": 5126,
      "count": 65532,
      "max": [
        1.0,
        0.9999999403953552,
        1.0
      ],
      "min": [
        -0.9999997615814209,
        -1.0,
        -1.0
      ],
      "type": "VEC3"
    },
    {
      "bufferView": 1,
      "componentType": 5126,
      "count": 65532,
      "max": [
        1.043238878250122,
        0.9997185468673706
      ],
      "min": [
        0.0,
        0.11588001251220703
      ],
      "type": "VEC2"
    },
    {
      "bufferView": 0,
      "componentType": 5125,
      "count": 362046,
      "type": "SCALAR"
    },
    {
      "bufferView": 2,
      "byteOffset": 1572768,
      "componentType": 5126,
      "count": 44522,
      "max": [
        105.62709045410156,
        117.71458435058594,
        108.24325561523438
      ],
      "min": [
        -125.06985473632813,
        -116.33707427978516,
        -108.24323272705078
      ],
      "type": "VEC3"
    },
    {
      "bufferView": 2,
      "byteOffset": 2107032,
      "componentType": 5126,
      "count": 44522,
      "max": [
        1.0,
        0.9999921321868896,
        1.0
      ],
      "min": [
        -0.9981319308280945,
        -0.999976396560669,
        -1.0
      ],
      "type": "VEC3"
    },
    {
      "bufferView": 1,
      "byteOffset": 524256,
      "componentType": 5126,
      "count": 44522,
      "max": [
        1.0024327039718628,
        0.9955401420593262
      ],
      "min": [
        0.0,
        0.1355745792388916
      ],
      "type": "VEC2"
    },
    {
      "bufferView": 0,
      "byteOffset": 1448184,
      "componentType": 5125,
      "count": 247554,
      "type": "SCALAR"
    },
    {
      "bufferView": 2,
      "byteOffset": 2641296,
      "componentType": 5126,
      "count": 640,
      "max": [
        2.0000038146972656,
        51.25265121459961,
        92.29786682128906
      ],
      "min": [
        -2.0000038146972656,
        -51.25265121459961,
        -92.29786682128906
      ],
      "type": "VEC3"
    },
    {
      "bufferView": 2,
      "byteOffset": 2648976,
      "componentType": 5126,
      "count": 640,
      "max": [
        1.0,
        0.00028915898292325437,
        9.758638771018013e-05
      ],
      "min": [
        -1.0,
        -0.00028915898292325437,
        -9.758644591784105e-05
      ],
      "type": "VEC3"
    },
    {
      "bufferView": 1,
      "byteOffset": 880432,
      "componentType": 5126,
      "count": 640,
      "max": [
        0.9614893198013306,
        0.756263256072998
      ],
      "min": [
        0.03851066529750824,
        0.24373674392700195
      ],
      "type": "VEC2"
    },
    {
      "bufferView": 0,
      "byteOffset": 2438400,
      "componentType": 5125,
      "count": 1908,
      "type": "SCALAR"
    },
    {
      "bufferView": 2,
      "byteOffset": 2656656,
      "componentType": 5126,
      "count": 65532,
      "max": [
        134.1943817138672,
        84.56645202636719,
        128.0863037109375
      ],
      "min": [
        -134.1943817138672,
        -138.2400360107422,
        -128.0863037109375
      ],
      "type": "VEC3"
    },
    {
      "bufferView": 2,
      "byteOffset": 3443040,
      "componentType": 5126,
      "count": 65532,
      "max": [
        1.0,
        1.0,
        1.0
      ],
      "min": [
        -1.0,
        -1.0,
        -1.0
      ],
      "type": "VEC3"
    },
    {
      "bufferView": 1,
      "byteOffset": 885552,
      "componentType": 5126,
      "count": 65532,
      "max": [
        1.2504405975341797,
        1.2504405975341797
      ],
      "min": [
        -0.2504406273365021,
        -0.4399397373199463
      ],
      "type": "VEC2"
    },
    {
      "bufferView": 0,
      "byteOffset": 2446032,
      "componentType": 5125,
      "count": 180081,
      "type": "SCALAR"
    },
    {
      "bufferView": 2,
      "byteOffset": 4229424,
      "componentType": 5126,
      "count": 30945,
      "max": [
        133.4156036376953,
        138.2400360107422,
        128.0863037109375
      ],
      "min": [
        -110.76055145263672,
        -76.4333267211914,
        -120.41815948486328
      ],
      "type": "VEC3"
    },
    {
      "bufferView": 2,
      "byteOffset": 4600764,
      "componentType": 5126,
      "count": 30945,
      "max": [
        1.0,
        1.0,
        1.0
      ],
      "min": [
        -1.0,
        -1.0,
        -1.0
      ],
      "type": "VEC3"
    },
    {
      "bufferView": 1,
      "byteOffset": 1409808,
      "componentType": 5126,
      "count": 30945,
      "max": [
        1.2504405975341797,
        1.135254144668579
      ],
      "min": [
        -0.14232906699180603,
        -0.1352541446685791
      ],
      "type": "VEC2"
    },
    {
      "bufferView": 0,
      "byteOffset": 3166356,
      "componentType": 5125,
      "count": 124380,
      "type": "SCALAR"
    },
    {
      "bufferView": 2,
      "byteOffset": 4972104,
      "componentType": 5126,
      "count": 21850,
      "max": [
        50.707237243652344,
        79.66992950439453,
        127.23699951171875
      ],
      "min": [
        -50.707237243652344,
        -79.66992950439453,
        -127.23699951171875
      ],
      "type": "VEC3"
    },
    {
      "bufferView": 2,
      "byteOffset": 5234304,
      "componentType": 5126,
      "count": 21850,
      "max": [
        1.0,
        1.0,
        1.0
      ],
      "min": [
        -1.0,
        -1.0,
        -1.0
      ],
      "type": "VEC3"
    },
    {
      "bufferView": 1,
      "byteOffset": 1657368,
      "componentType": 5126,
      "count": 21850,
      "max": [
        1.3154582977294922,
        1.3154582977294922
      ],
      "min": [
        -0.3154582679271698,
        -0.3154582977294922
      ],
      "type": "VEC2"
    },
    {
      "bufferView": 0,
      "byteOffset": 3663876,
      "componentType": 5125,
      "count": 84339,
      "type": "SCALAR"
    }
  ],
  "asset": {
    "extras": {
      "author": "Nadir Alishly (https://sketchfab.com/nadiralishly)",
      "license": "CC-BY-4.0 (http://creativecommons.org/licenses/by/4.0/)",
      "source": "https://sketchfab.com/3d-models/diving-helmet-5073ee26106a467492e4943905c57ce2",
      "title": "Diving helmet"
    },
    "generator": "Sketchfab-10.61.0",
    "version": "2.0"
  },
  "bufferViews": [
    {
      "buffer": 0,
      "byteLength": 4001232,
      "name": "floatBufferViews",
      "target": 34963
    },
    {
      "buffer": 0,
      "byteLength": 1832168,
      "byteOffset": 4001232,
      "byteStride": 8,
      "name": "floatBufferViews",
      "target": 34962
    },
    {
      "buffer": 0,
      "byteLength": 5496504,
      "byteOffset": 5833400,
      "byteStride": 12,
      "name": "floatBufferViews",
      "target": 34962
    }
  ],
  "buffers": [
    {
      "byteLength": 11329904,
      "uri": "scene.bin"
    }
  ],
  "extensionsUsed": [
    "KHR_materials_transmission"
  ],
  "images": [
    {
      "uri": "textures/main_metallicRoughness.png"
    },
    {
      "uri": "textures/glass_metallicRoughness.png"
    }
  ],
  "materials": [
    {
      "doubleSided": true,
      "name": "main",
      "pbrMetallicRoughness": {
        "baseColorFactor": [
          1.0,
          0.5540790912347202,
          0.0,
          1.0
        ],
        "metallicFactor": 0.4,
        "metallicRoughnessTexture": {
          "index": 0
        }
      }
    },
    {
      "alphaMode": "BLEND",
      "doubleSided": true,
      "extensions": {
        "KHR_materials_transmission": {
          "transmissionFactor": 1.0
        }
      },
      "name": "glass",
      "pbrMetallicRoughness": {
        "baseColorFactor": [
          0.0,
          0.0,
          0.0,
          0.25
        ],
        "metallicFactor": 0.0,
        "metallicRoughnessTexture": {
          "index": 1
        },
        "roughnessFactor": 0.08683247298883072
      }
    },
    {
      "doubleSided": true,
      "name": "metal",
      "pbrMetallicRoughness": {
        "metallicRoughnessTexture": {
          "index": 0
        }
      }
    },
    {
      "doubleSided": true,
      "name": "rubber",
      "pbrMetallicRoughness": {
        "baseColorFactor": [
          0.0,
          0.0,
          0.0,
          1.0
        ],
        "metallicFactor": 0.0,
        "metallicRoughnessTexture": {
          "index": 0
        }
      }
    }
  ],
  "meshes": [
    {
      "name": "main_main_0",
      "primitives": [
        {
          "attributes": {
            "NORMAL": 1,
            "POSITION": 0,
            "TEXCOORD_0": 2
          },
          "indices": 3,
          "material": 0,
          "mode": 4
        }
      ]
    },
    {
      "name": "main_main_0",
      "primitives": [
        {
          "attributes": {
            "NORMAL": 5,
            "POSITION": 4,
            "TEXCOORD_0": 6
          },
          "indices": 7,
          "material": 0,
          "mode": 4
        }
      ]
    },
    {
      "name": "glass_glass_0",
      "primitives": [
        {
          "attributes": {
            "NORMAL": 9,
            "POSITION": 8,
            "TEXCOORD_0": 10
          },
          "indices": 11,
          "material": 1,
          "mode": 4
        }
      ]
    },
    {
      "name": "matal_metal_0",
      "primitives": [
        {
          "attributes": {
            "NORMAL": 13,
            "POSITION": 12,
            "TEXCOORD_0": 14
          },
          "indices": 15,
          "material": 2,
          "mode": 4
        }
      ]
    },
    {
      "name": "matal_metal_0",
      "primitives": [
        {
          "attributes": {
            "NORMAL": 17,
            "POSITION": 16,
            "TEXCOORD_0": 18
          },
          "indices": 19,
          "material": 2,
          "mode": 4
        }
      ]
    },
    {
      "name": "rubber_rubber_0",
      "primitives": [
        {
          "attributes": {
            "NORMAL": 21,
            "POSITION": 20,
            "TEXCOORD_0": 22
          },
          "indices": 23,
          "material": 3,
          "mode": 4
        }
      ]
    }
  ],
  "nodes": [
    {
      "children": [
        1
      ],
      "matrix": [
        1.0,
        0.0,
        0.0,
        0.0,
        0.0,
        2.220446049250313e-16,
        -1.0,
        0.0,
        0.0,
        1.0,
        2.220446049250313e-16,
        0.0,
        0.0,
        0.0,
        0.0,
        1.0
      ],
      "name": "Sketchfab_model"
    },
    {
      "children": [
        2
      ],
      "matrix": [
        1.0,
        0.0,
        0.0,
        0.0,
        0.0,
        0.0,
        1.0,
        0.0,
        0.0,
        -1.0,
        0.0,
        0.0,
        0.0,
        0.0,
        0.0,
        1.0
      ],
      "name": "de840a15fd8b4b088a4910d84bfe2a18.fbx"
    },
    {
      "children": [
        3,
        5,
        8,
        10,
        13
      ],
      "name": "RootNode"
    },
    {
      "children": [
        4
      ],
      "matrix": [
        -0.8755420433443639,
        -0.40829394715262823,
        0.2583063743985097,
        0.0,
        -0.3916068546270278,
        0.9128505095132099,
        0.11553362580045307,
        0.0,
        -0.2829667855871112,
        6.938893903907228e-18,
        -0.9591297087748341,
        0.0,
        466.8741149902344,
        364.16668701171875,
        -115.52951049804688,
        1.0
      ],
      "name": "CINEMA_4D_Editor"
    },
    {
      "name": "Object_4"
    },
    {
      "children": [
        6,
        7
      ],
      "matrix": [
        1.0,
        0.0,
        -1.133107779529596e-15,
        0.0,
        0.0,
        1.0,
        0.0,
        0.0,
        1.133107779529596e-15,
        0.0,
        1.0,
        0.0,
        -22.942285537719727,
        140.26278686523438,
        2.5996083202208496e-14,
        1.0
      ],
      "name": "main"
    },
    {
      "mesh": 0,
      "name": "main_main_0"
    },
    {
      "mesh": 1,
      "name": "main_main_0"
    },
    {
      "children": [
        9
      ],
      "matrix": [
        1.0,
        0.0,
        8.881784197001252e-16,
        0.0,
        0.0,
        1.0,
        0.0,
        0.0,
        -8.881784197001252e-16,
        0.0,
        1.0,
        0.0,
        74.30392456054688,
        162.36289978027344,
        -8.526512829121202e-14,
        1.0
      ],
      "name": "glass"
    },
    {
      "mesh": 2,
      "name": "glass_glass_0"
    },
    {
      "children": [
        11,
        12
      ],
      "matrix": [
        1.0,
        0.0,
        0.0,
        0.0,
        0.0,
        1.0,
        0.0,
        0.0,
        0.0,
        0.0,
        1.0,
        0.0,
        -28.51070785522461,
        139.45742797851563,
        18.167736053466797,
        1.0
      ],
      "name": "matal"
    },
    {
      "mesh": 3,
      "name": "matal_metal_0"
    },
    {
      "mesh": 4,
      "name": "matal_metal_0"
    },
    {
      "children": [
        14
      ],
      "matrix": [
        1.0,
        0.0,
        0.0,
        0.0,
        0.0,
        1.0,
        0.0,
        0.0,
        0.0,
        0.0,
        1.0,
        0.0,
        24.24817657470703,
        89.1660385131836,
        35.85465621948242,
        1.0
      ],
      "name": "rubber"
    },
    {
      "mesh": 5,
      "name": "rubber_rubber_0"
    }
  ],
  "samplers": [
    {
      "magFilter": 9729,
      "minFilter": 9987,
      "wrapS": 10497,
      "wrapT": 10497
    }
  ],
  "scene": 0,
  "scenes": [
    {
      "name": "Sketchfab_Scene",
      "nodes": [
        0
      ]
    }
  ],
  "textures": [
    {
      "sampler": 0,
      "source": 0
    },
    {
      "sampler": 0,
      "source": 1
    }
  ]
}
