<svg xmlns="http://www.w3.org/2000/svg" viewBox="0 0 520.97 520.96"><defs><style>.cls-1{isolation:isolate;}.cls-2{fill:#fff;}.cls-3{fill:#bfe2ff;}.cls-4{fill:#3a7ec1;opacity:0.25;mix-blend-mode:multiply;}.cls-5{fill:#dbe2ef;}.cls-6{fill:#4d7393;}.cls-7{fill:#fe7c40;}.cls-8{fill:#337ab7;}</style></defs><g class="cls-1"><g id="Layer_2" data-name="Layer 2"><g id="Layer_4" data-name="Layer 4"><circle class="cls-2" cx="260.48" cy="260.48" r="253.6"/><path d="M260.48,521C116.85,521,0,404.11,0,260.48S116.85,0,260.48,0,521,116.85,521,260.48,404.11,521,260.48,521Zm0-507.2c-136,0-246.72,110.68-246.72,246.72S124.44,507.2,260.48,507.2,507.2,396.52,507.2,260.48,396.52,13.76,260.48,13.76Z"/><circle class="cls-3" cx="263.71" cy="253.3" r="194.35"/><rect class="cls-4" x="139.5" y="187.69" width="277.24" height="226.29" rx="9.6" transform="translate(-52.67 542.55) rotate(-83.4)"/><rect class="cls-5" x="149.02" y="179.78" width="277.24" height="226.29" rx="9.6" transform="translate(-36.39 545.02) rotate(-83.4)"/><path class="cls-6" d="M375.68,445.19a11.32,11.32,0,0,1-1.41-.08l-205.7-23.78a12.22,12.22,0,0,1-10.73-13.54l29.64-256.32A12.2,12.2,0,0,1,201,140.74l205.71,23.79a12.22,12.22,0,0,1,10.73,13.53L387.81,434.38A12.23,12.23,0,0,1,375.68,445.19ZM199.6,145.88a7,7,0,0,0-6.94,6.19L163,408.39a7,7,0,0,0,6.15,7.75l205.7,23.79a7,7,0,0,0,7.76-6.15l29.63-256.32a7,7,0,0,0-6.14-7.75L200.41,145.92A7.32,7.32,0,0,0,199.6,145.88Z"/><rect class="cls-4" x="125.76" y="145.18" width="226.29" height="277.24" rx="9.6" transform="translate(-22.98 21.06) rotate(-4.82)"/><rect class="cls-7" x="133.84" y="135.03" width="226.29" height="277.24" rx="9.6" transform="translate(-22.1 21.7) rotate(-4.82)"/><path class="cls-6" d="M154.64,423.11a12.22,12.22,0,0,1-12.16-11.18L120.81,154.81A12.24,12.24,0,0,1,132,141.61L338.3,124.23h0a12.27,12.27,0,0,1,13.2,11.14l21.66,257.12A12.21,12.21,0,0,1,362,405.68L155.67,423.07C155.33,423.1,155,423.11,154.64,423.11Zm184.1-293.68L132.39,146.81a7,7,0,0,0-6.38,7.56l21.66,257.12a7,7,0,0,0,7.56,6.38l206.35-17.38a7,7,0,0,0,6.38-7.56L346.3,135.81a7,7,0,0,0-7.56-6.38Z"/><rect class="cls-4" x="148.21" y="124.08" width="226.29" height="277.24" rx="9.6"/><rect class="cls-2" x="156.92" y="115.37" width="226.29" height="277.24" rx="58.49"/><path class="cls-6" d="M373.6,395.22H166.53A12.22,12.22,0,0,1,154.32,383V125a12.21,12.21,0,0,1,12.21-12.21H373.6A12.22,12.22,0,0,1,385.82,125V383A12.23,12.23,0,0,1,373.6,395.22ZM166.53,118a7,7,0,0,0-7,7V383a7,7,0,0,0,7,7H373.6a7,7,0,0,0,7-7V125a7,7,0,0,0-7-7Z"/><rect class="cls-7" x="183.01" y="162.66" width="99.16" height="11.36" rx="5.68"/><rect class="cls-3" x="183.01" y="196.5" width="174.1" height="11.36" rx="5.68"/><rect class="cls-3" x="183.01" y="233.02" width="174.1" height="11.36" rx="5.68"/><rect class="cls-3" x="183.01" y="269.54" width="174.1" height="11.36" rx="5.68"/><rect class="cls-3" x="183.01" y="306.06" width="174.1" height="11.36" rx="5.68"/><rect class="cls-3" x="183.01" y="341.47" width="174.1" height="11.36" rx="5.68"/><path class="cls-4" d="M408.29,190.64a59.25,59.25,0,1,0,59.25,59.25A59.32,59.32,0,0,0,408.29,190.64Z"/><circle class="cls-2" cx="413.22" cy="241.77" r="56.64"/><path class="cls-6" d="M413.22,301a59.25,59.25,0,1,1,59.24-59.25A59.32,59.32,0,0,1,413.22,301Zm0-113.28a54,54,0,1,0,54,54A54.1,54.1,0,0,0,413.22,187.74Z"/><path class="cls-7" d="M413.22,262.69h0c-3.2,0-6-2-6.31-4.55l-4.07-37.27c-.87-8,3.73-15.61,10.38-15.61h0c6.64,0,11.24,7.62,10.37,15.61l-4.07,37.27C419.23,260.73,416.41,262.69,413.22,262.69Z"/><ellipse class="cls-7" cx="413.22" cy="272.9" rx="7.31" ry="5.38"/><circle class="cls-7" cx="160.36" cy="58.95" r="12.36"/><circle class="cls-8" cx="423.7" cy="136.94" r="14.24"/><circle class="cls-7" cx="292.36" cy="468.85" r="14.24"/><circle class="cls-8" cx="95.72" cy="307.13" r="7.66"/></g></g></g></svg>