<svg xmlns="http://www.w3.org/2000/svg" viewBox="0 0 541.89 541.88"><defs><style>.cls-1,.cls-2,.cls-3{fill:none;}.cls-1,.cls-2,.cls-3,.cls-4{stroke:#767777;stroke-linecap:round;stroke-linejoin:round;}.cls-1{stroke-width:20.92px;}.cls-2{stroke-width:20.92px;}.cls-3{stroke-width:13.95px;}.cls-4{fill:#bfe2ff;stroke-width:10px;}</style></defs><g id="Layer_2" data-name="Layer 2"><g id="Layer_4" data-name="Layer 4"><circle class="cls-1" cx="270.94" cy="270.94" r="253.6"/><path class="cls-1" d="M270.94,531.42c-143.63,0-260.48-116.85-260.48-260.48S127.31,10.46,270.94,10.46,531.43,127.31,531.43,270.94,414.57,531.42,270.94,531.42Zm0-507.2c-136,0-246.72,110.68-246.72,246.72S134.9,517.66,270.94,517.66,517.66,407,517.66,270.94,407,24.22,270.94,24.22Z"/><path class="cls-2" d="M182.55,366V159.34a10,10,0,0,1,10-10H396.09a10,10,0,0,1,10,10V359.7a32.81,32.81,0,0,1-32.8,32.8H161.07v-.31A26.24,26.24,0,0,1,134.83,366h0V223.82a9.09,9.09,0,0,1,9.09-9.1h38.63"/><line class="cls-3" x1="221.05" y1="219.48" x2="269.94" y2="219.48"/><line class="cls-3" x1="221.05" y1="260.8" x2="269.94" y2="260.8"/><line class="cls-3" x1="221.05" y1="299.73" x2="367.76" y2="299.73"/><line class="cls-3" x1="221.05" y1="338.67" x2="367.76" y2="338.67"/><rect class="cls-4" x="309.01" y="198.43" width="62.37" height="62.37"/></g></g></svg>