<svg xmlns="http://www.w3.org/2000/svg" viewBox="0 0 541.89 541.88"><defs><style>.cls-1{fill:none;stroke-linecap:round;stroke-linejoin:round;stroke-width:20.92px;}.cls-1,.cls-2{stroke:#767777;}.cls-2{fill:#bfe2ff;stroke-miterlimit:10;stroke-width:20px;}</style></defs><g id="Layer_2" data-name="Layer 2"><g id="Layer_4" data-name="Layer 4"><circle class="cls-1" cx="270.94" cy="270.94" r="253.6"/><path class="cls-1" d="M270.94,531.42c-143.63,0-260.48-116.85-260.48-260.48S127.31,10.46,270.94,10.46,531.43,127.31,531.43,270.94,414.57,531.42,270.94,531.42Zm0-507.2c-136,0-246.72,110.68-246.72,246.72S134.9,517.66,270.94,517.66,517.66,407,517.66,270.94,407,24.22,270.94,24.22Z"/><path class="cls-1" d="M407.13,212.51c-17.35-4.5-53.35-28.28-66.85-30.85s-52.72-7.07-71.36,3.85-50.14,61.07-61.07,72.65c19.29,15.42,31.5,13.5,43.07,7.07s27-39.22,43.72-36S362.13,332,368.56,343s-16.47,27.11-33.42,8.4c3.38,15.43-21.86,26.36-33.43,12.86.82,13-22.66,20.3-37.29,5.85,5.14,17.93-22.5,28.22-36,14.72-10.75-10.75-38.19-49.6-48.94-65a14.86,14.86,0,0,0-12.19-6.35h-21.8V190.66l114.7,1.77"/><line class="cls-1" x1="411.63" y1="337.23" x2="365.39" y2="337.23"/><line class="cls-1" x1="296.45" y1="305.07" x2="335.14" y2="351.37"/><line class="cls-1" x1="266.08" y1="320.62" x2="301.71" y2="364.23"/><line class="cls-1" x1="236.27" y1="337.23" x2="264.42" y2="370.08"/><path class="cls-2" d="M461.13,351.37H407.06a7,7,0,0,1-7-7V179a7,7,0,0,1,7-7h54.07Z"/><path class="cls-2" d="M145.57,351.37H91.49V172h54.08a7,7,0,0,1,7,7V344.38A7,7,0,0,1,145.57,351.37Z"/></g></g></svg>