<svg xmlns="http://www.w3.org/2000/svg" viewBox="0 0 541.89 541.88"><defs><style>.cls-1,.cls-4{fill:none;}.cls-1,.cls-2,.cls-3,.cls-4{stroke:#767777;stroke-linecap:round;stroke-linejoin:round;}.cls-1{stroke-width:20.92px;}.cls-2{fill:#bfe2ff;stroke-width:20px;}.cls-3{fill:#fff;stroke-width:20.92px;}.cls-4{stroke-width:13.95px;}</style></defs><g id="Layer_2" data-name="Layer 2"><g id="Layer_4" data-name="Layer 4"><circle class="cls-1" cx="270.94" cy="270.94" r="253.6"/><path class="cls-1" d="M270.94,531.42c-143.63,0-260.48-116.85-260.48-260.48S127.31,10.46,270.94,10.46,531.43,127.31,531.43,270.94,414.57,531.42,270.94,531.42Zm0-507.2c-136,0-246.72,110.68-246.72,246.72S134.9,517.66,270.94,517.66,517.66,407,517.66,270.94,407,24.22,270.94,24.22Z"/><path class="cls-2" d="M349.38,299.76H316.24l-29.86,49.36,53.33,92.38a10.12,10.12,0,0,0,13.81,3.7l14.14-37.76,35.9,8.87a11.36,11.36,0,0,0,4.16-15.51Z"/><path class="cls-2" d="M195.31,299.76,137,400.8a11.35,11.35,0,0,0,4.15,15.51l39.8-8.87,10.24,37.76A10.12,10.12,0,0,0,205,441.5l81.83-141.74Z"/><path class="cls-3" d="M265.08,357.47l-19.85-16.25a11.47,11.47,0,0,0-9.12-2.45l-25.32,4.16a11.48,11.48,0,0,1-12.59-7.27l-9-24a11.48,11.48,0,0,0-6.69-6.68l-24-9.06a11.46,11.46,0,0,1-7.27-12.59L155.35,258a11.52,11.52,0,0,0-2.44-9.13l-16.26-19.84a11.48,11.48,0,0,1,0-14.54l16.26-19.84a11.52,11.52,0,0,0,2.44-9.13l-4.15-25.31a11.46,11.46,0,0,1,7.27-12.59l24-9.06a11.48,11.48,0,0,0,6.69-6.68l9-24a11.48,11.48,0,0,1,12.59-7.27l25.32,4.16a11.47,11.47,0,0,0,9.12-2.45l19.85-16.25a11.47,11.47,0,0,1,14.53,0l19.85,16.25a11.47,11.47,0,0,0,9.12,2.45l25.32-4.16a11.48,11.48,0,0,1,12.59,7.27l9.06,24a11.44,11.44,0,0,0,6.68,6.68l24,9.06a11.46,11.46,0,0,1,7.27,12.59l-4.15,25.31a11.49,11.49,0,0,0,2.45,9.13L408,214.51a11.48,11.48,0,0,1,0,14.54l-16.25,19.84a11.49,11.49,0,0,0-2.45,9.13l4.15,25.31a11.46,11.46,0,0,1-7.27,12.59l-24,9.06a11.44,11.44,0,0,0-6.68,6.68l-9.06,24a11.48,11.48,0,0,1-12.59,7.27l-25.32-4.16a11.47,11.47,0,0,0-9.12,2.45l-19.85,16.25A11.44,11.44,0,0,1,265.08,357.47Z"/><circle class="cls-4" cx="272.35" cy="221.78" r="85.97" transform="translate(-77.05 257.54) rotate(-45)"/><polygon class="cls-4" points="272.35 167.98 289.01 201.75 326.28 207.16 299.31 233.45 305.68 270.56 272.35 253.04 239.01 270.56 245.38 233.45 218.41 207.16 255.68 201.75 272.35 167.98"/></g></g></svg>