<svg xmlns="http://www.w3.org/2000/svg" viewBox="0 0 208.23 144"><defs><style>.cls-1,.cls-2{fill:none;stroke:#000;stroke-width:4px;}.cls-1{stroke-linecap:round;stroke-linejoin:round;}.cls-2{stroke-miterlimit:10;}</style></defs><g id="Layer_2" data-name="Layer 2"><g id="stroke-adjustable"><path class="cls-1" d="M206.23,21.81V122.19A19.8,19.8,0,0,1,186.43,142H21.83A19.83,19.83,0,0,1,2,122.19V21.81A19.82,19.82,0,0,1,21.83,2h164.6a19.8,19.8,0,0,1,19.8,19.81Z"/><path class="cls-1" d="M141.59,99.73A46.77,46.77,0,0,1,57.15,72c0-28.32,25.86-46,46.77-46.77,16.32-.56,28.58,9.27,29.86,10.32,9.36,7.72,12.84,17.15,14.65,22.06a38.14,38.14,0,0,1,2.63,15.08c-.12,2.87-.49,12-5.17,13.7a5.83,5.83,0,0,1-3.92-.2c-4.69-1.72-5.6-7.77-9.18-16.68a101.43,101.43,0,0,0-6.19-12.69"/><circle class="cls-2" cx="107.53" cy="71.24" r="23.9"/></g></g></svg>