<svg xmlns="http://www.w3.org/2000/svg" viewBox="0 0 30 21.32"><g id="Layer_2" data-name="Layer 2"><g id="Layer_1-2" data-name="Layer 1"><path d="M27.42,0H2.58A2.59,2.59,0,0,0,0,2.58V18.74a2.57,2.57,0,0,0,.19,1h0a2.57,2.57,0,0,0,2.38,1.6H27.42A2.59,2.59,0,0,0,30,18.74V2.58A2.59,2.59,0,0,0,27.42,0Zm1,18.59L23.23,12.3a5.9,5.9,0,0,1-.83,1.48l4.92,6H2.58a1.2,1.2,0,0,1-.33-.06l4.43-5.36a9.35,9.35,0,0,1-.41-2L1.58,18V3l5.2,5.08a9.34,9.34,0,0,1,.68-1.55l-5-4.91.16,0H27.46l-4.59,4a7.15,7.15,0,0,1,.62,1.56l4.93-4.32V18.59Z"/><path d="M15.83,2.57a8.6,8.6,0,0,0-8.7,8.86,7.06,7.06,0,0,0,7.25,7.32,9.53,9.53,0,0,0,4.28-.84l-.42-1.32a8.06,8.06,0,0,1-3.39.72c-3.47,0-5.93-2.19-5.93-6.09C8.92,6.75,12,4,15.59,4s5.56,2.33,5.56,5.38c0,2.69-1.25,4-2.25,3.93-.66,0-.82-.65-.59-2L19,6.94a6.78,6.78,0,0,0-2.77-.56,5.32,5.32,0,0,0-5.46,5.42c0,1.9,1.12,3,2.6,3a3.49,3.49,0,0,0,3-1.79h0a1.84,1.84,0,0,0,2,1.79c2.51,0,4.42-2.14,4.42-5.55C22.87,5.38,19.94,2.57,15.83,2.57Zm.44,8c-.21,1.35-1.12,2.44-2,2.44s-1.16-.56-1.16-1.44a3.07,3.07,0,0,1,2.74-3.3,2.82,2.82,0,0,1,.72.09Z"/></g></g></svg>