<svg xmlns="http://www.w3.org/2000/svg" viewBox="0 0 24.64 32.07"><defs><style>.cls-1{fill-rule:evenodd;}</style></defs><g id="Layer_2" data-name="Layer 2"><g id="Layer_1-2" data-name="Layer 1"><path class="cls-1" d="M3.3,3.33C4.8,5.9,6.12,8.62,7.62,11.12c-2.37,2.6-.38,7.05-.06,7.79,1.89,3.53,4.94,5.86,7.4,5,4.43,7.31.16.07,4.43,7.47C8.3,37-6.73,5.42,3.3,3.33Z"/><path class="cls-1" d="M4.36,1.9a.85.85,0,0,0-.29,1.18c1.38,2.37,2.82,4.78,4.26,7.15a.91.91,0,0,0,1.19.32c1.06-.61,2.05-1.19,3.08-1.76A1,1,0,0,0,13,7.54L8.62.39A.87.87,0,0,0,7.44.13Z"/><path class="cls-1" d="M16,22.18a.86.86,0,0,0-.29,1.19c1.38,2.44,2.75,4.84,4.2,7.28a.88.88,0,0,0,1.18.32c1.06-.61,2.05-1.19,3.08-1.77A1,1,0,0,0,24.55,28c-1.44-2.43-2.82-4.84-4.26-7.27a.86.86,0,0,0-1.19-.26C18,21,17.05,21.61,16,22.18Z"/></g></g></svg>