<svg xmlns="http://www.w3.org/2000/svg" viewBox="0 0 208.23 144"><defs><style>.cls-1{fill:none;stroke:#000;stroke-linecap:round;stroke-linejoin:round;stroke-width:4px;}</style></defs><g id="Layer_2" data-name="Layer 2"><g id="stroke-adjustable"><path class="cls-1" d="M134.72,117.87c-11.09,8.14-29.65-.6-38.68-4.82A79.17,79.17,0,0,1,63.65,84.66C58.28,76.27,47.17,59,53.78,47c2.4-4.37,7.78-9.16,10.35-11.45,3.46-3.07,5.22-4.61,7.06-4.75a5.86,5.86,0,0,1,.59,0c4.51.17,7.59,6.29,13.31,17.66,1,2,2.11,4.39,1.12,6.45-1.29,2.68-5.42,3.57-6.57,3.82-3.51.76-4.89-.31-5.84.61-2.42,2.33,3.6,12.46,4,13.21a62.49,62.49,0,0,0,28.39,24.86c.79.35,11.63,5,13.63,2.29.78-1.06-.45-2.29-.17-5.87.1-1.18.44-5.39,2.93-7,1.91-1.25,4.38-.48,6.54.26,12,4.19,18.49,6.43,19.25,10.87a5.9,5.9,0,0,1,.06.59c.11,1.85-1.18,3.8-3.78,7.63C142.78,109,138.74,114.92,134.72,117.87Z"/><path class="cls-1" d="M101.23,42.73c1.25-.41,13.47-4.22,24.44,3.67,10.08,7.24,11.1,18.59,11.21,20.17"/><path class="cls-1" d="M100.11,24.8c2-.65,21.31-6.67,38.67,5.8C154.71,42.05,156.32,60,156.5,62.5"/><path class="cls-1" d="M206.23,21.81V122.19A19.8,19.8,0,0,1,186.43,142H21.83A19.83,19.83,0,0,1,2,122.19V21.81A19.82,19.82,0,0,1,21.83,2h164.6a19.8,19.8,0,0,1,19.8,19.81Z"/></g></g></svg>