<svg xmlns="http://www.w3.org/2000/svg" viewBox="0 0 520.97 520.96"><defs><style>.cls-1{fill:#fff;}.cls-2{fill:#bfe2ff;}.cls-3{opacity:0.5;}.cls-4{fill:#327ab8;}</style></defs><g id="Layer_2" data-name="Layer 2"><g id="Layer_4" data-name="Layer 4"><circle class="cls-1" cx="260.48" cy="260.48" r="253.6"/><path d="M260.48,521C116.85,521,0,404.11,0,260.48S116.85,0,260.48,0,521,116.85,521,260.48,404.11,521,260.48,521Zm0-507.2c-136,0-246.72,110.68-246.72,246.72S124.44,507.2,260.48,507.2,507.2,396.52,507.2,260.48,396.52,13.76,260.48,13.76Z"/><circle class="cls-2" cx="260.48" cy="260.48" r="222.55"/><path d="M260.48,486C136.14,486,35,384.82,35,260.48S136.14,35,260.48,35,486,136.14,486,260.48,384.82,486,260.48,486Zm0-445.09C139.4,40.89,40.89,139.4,40.89,260.48s98.51,219.6,219.59,219.6,219.6-98.51,219.6-219.6S381.57,40.89,260.48,40.89Z"/><path d="M260.48,81.4a3,3,0,0,1-3-3V61.77a2.95,2.95,0,0,1,5.9,0V78.45A3,3,0,0,1,260.48,81.4Z"/><path d="M169.42,105.41a3,3,0,0,1-2.56-1.48l-8.34-14.44a3,3,0,0,1,5.11-2.95L172,101a3,3,0,0,1-2.55,4.43Z"/><path d="M102.55,171.74a2.9,2.9,0,0,1-1.47-.4L86.63,163a2.95,2.95,0,1,1,3-5.1L104,166.23a3,3,0,0,1-1.47,5.51Z"/><path d="M77.81,262.61H61.13a3,3,0,0,1,0-5.9H77.81a2.95,2.95,0,0,1,0,5.9Z"/><path d="M87.38,362a2.95,2.95,0,0,1-1.48-5.5l14.45-8.34a2.94,2.94,0,0,1,2.94,5.1l-14.44,8.34A2.9,2.9,0,0,1,87.38,362Z"/><path d="M159.81,435a3,3,0,0,1-2.55-4.43l8.33-14.44a3,3,0,1,1,5.11,2.95l-8.34,14.44A2.93,2.93,0,0,1,159.81,435Z"/><path d="M259,462a3,3,0,0,1-2.95-2.95V442.34a3,3,0,0,1,5.9,0V459A3,3,0,0,1,259,462Z"/><path d="M358.43,435.72a2.93,2.93,0,0,1-2.55-1.48l-8.34-14.44a3,3,0,0,1,5.11-2.95L361,431.29a2.94,2.94,0,0,1-1.08,4A2.9,2.9,0,0,1,358.43,435.72Z"/><path d="M431.39,363.29a2.93,2.93,0,0,1-1.47-.4l-14.44-8.34a3,3,0,0,1,2.95-5.11l14.44,8.34a3,3,0,0,1-1.48,5.51Z"/><path d="M458.37,264.07H441.7a2.95,2.95,0,0,1,0-5.9h16.67a2.95,2.95,0,0,1,0,5.9Z"/><path d="M417.69,173a2.95,2.95,0,0,1-1.48-5.5l14.44-8.34a3,3,0,0,1,3,5.11l-14.44,8.34A2.92,2.92,0,0,1,417.69,173Z"/><g class="cls-3"><path class="cls-4" d="M248.38,399.27h19.68v-31l2.26-.22a85.62,85.62,0,0,0,25-6.1,61.52,61.52,0,0,0,19-12.38,53.31,53.31,0,0,0,12.16-18.1,62.55,62.55,0,0,0,4.32-23.82c0-10-1.7-18.71-5-25.79a59.26,59.26,0,0,0-14-18.77,102.08,102.08,0,0,0-21.6-14.62c-8.43-4.34-17.75-8.68-27.7-12.89a98.22,98.22,0,0,1-13.34-6.95,41.14,41.14,0,0,1-8.85-7.38,23.19,23.19,0,0,1-4.85-8.69,35.64,35.64,0,0,1-1.35-10.18,37.06,37.06,0,0,1,1.34-10.07,24.53,24.53,0,0,1,4.24-8.56,20.75,20.75,0,0,1,7.58-5.91,25.42,25.42,0,0,1,10.92-2.18,26.42,26.42,0,0,1,10.46,2.06,22,22,0,0,1,8.58,6.72,32.36,32.36,0,0,1,5.5,11.36,56.51,56.51,0,0,1,1.84,13.39H332a79.7,79.7,0,0,0-4.18-24.31A64,64,0,0,0,316,164.05a61,61,0,0,0-18.5-14.39,78.23,78.23,0,0,0-24.15-7.52l-2.14-.31v-33H251.48v32.53l-2.26.22a87.91,87.91,0,0,0-25.82,6.25,65.21,65.21,0,0,0-19.74,12.71A54.49,54.49,0,0,0,191,178.84a59.44,59.44,0,0,0-4.46,23.25c0,10.15,1.65,18.89,4.9,26a55.27,55.27,0,0,0,13.82,18.58A98.43,98.43,0,0,0,227,260.87c8.49,4.19,17.94,8.4,28.09,12.5a101.74,101.74,0,0,1,12.78,6.39,37.6,37.6,0,0,1,8.9,7.25,25.85,25.85,0,0,1,5.16,9.19A39.6,39.6,0,0,1,283.47,308,33.76,33.76,0,0,1,282,318a22.7,22.7,0,0,1-4.63,8.37,22.29,22.29,0,0,1-7.94,5.68,27.8,27.8,0,0,1-11.17,2.08,39,39,0,0,1-12.12-1.91,26.81,26.81,0,0,1-10.61-6.59,32.06,32.06,0,0,1-7.26-12,51.33,51.33,0,0,1-2.6-15.65H178.38c.24,11.27,2.14,21.08,5.66,29.19a63.7,63.7,0,0,0,15.08,21.74A64.68,64.68,0,0,0,220.73,362a105.6,105.6,0,0,0,25.41,5.92l2.24.23Z"/></g><path d="M351.35,106.14a3,3,0,0,1-2.55-4.42l8.34-14.45a3,3,0,0,1,5.11,3l-8.34,14.44A2.94,2.94,0,0,1,351.35,106.14Z"/><path d="M256.24,258.92a6.88,6.88,0,0,1,5.23-8.2L396.31,221a6.88,6.88,0,0,1,3,13.44L264.44,264.16A6.87,6.87,0,0,1,256.24,258.92Z"/><path d="M264.9,254.69a6.88,6.88,0,0,1-11.56,6.12L173.2,183.57a6.88,6.88,0,0,1,9.56-9.91l80.13,77.24A6.85,6.85,0,0,1,264.9,254.69Z"/><path d="M260.48,274a15.7,15.7,0,1,1,15.7-15.7A15.72,15.72,0,0,1,260.48,274Zm0-17.64a1.94,1.94,0,1,0,1.94,1.94A1.93,1.93,0,0,0,260.48,256.35Z"/></g></g></svg>